<svg width="16" height="16" viewBox="0 0 16 16" fill="none" xmlns="http://www.w3.org/2000/svg">
<path id="Vector" d="M8 0.387817C3.58 0.387817 0 3.96782 0 8.38782C0 11.9278 2.29 14.9178 5.47 15.9778C5.87 16.0478 6.02 15.8078 6.02 15.5978C6.02 15.4078 6.01 14.7778 6.01 14.1078C4 14.4778 3.48 13.6178 3.32 13.1678C3.23 12.9378 2.84 12.2278 2.5 12.0378C2.22 11.8878 1.82 11.5178 2.49 11.5078C3.12 11.4978 3.57 12.0878 3.72 12.3278C4.44 13.5378 5.59 13.1978 6.05 12.9878C6.12 12.4678 6.33 12.1178 6.56 11.9178C4.78 11.7178 2.92 11.0278 2.92 7.96782C2.92 7.09782 3.23 6.37782 3.74 5.81782C3.66 5.61782 3.38 4.79782 3.82 3.69782C3.82 3.69782 4.49 3.48782 6.02 4.51782C6.66 4.33782 7.34 4.24782 8.02 4.24782C8.7 4.24782 9.38 4.33782 10.02 4.51782C11.55 3.47782 12.22 3.69782 12.22 3.69782C12.66 4.79782 12.38 5.61782 12.3 5.81782C12.81 6.37782 13.12 7.08782 13.12 7.96782C13.12 11.0378 11.25 11.7178 9.47 11.9178C9.76 12.1678 10.01 12.6478 10.01 13.3978C10.01 14.4678 10 15.3278 10 15.5978C10 15.8078 10.15 16.0578 10.55 15.9778C12.1382 15.4418 13.5183 14.4212 14.496 13.0596C15.4737 11.698 15.9997 10.0641 16 8.38782C16 3.96782 12.42 0.387817 8 0.387817Z" fill="black"/>
</svg>
