<svg width="40" height="30" viewBox="0 0 40 30" fill="none" xmlns="http://www.w3.org/2000/svg">
<path d="M13.4606 0H21.4702L18.2552 8.98472C12.5964 9.97911 8.26833 15.454 8.26833 22.0588C8.26833 25.0383 9.14915 27.788 10.6355 30H0L9.7229 2.82874C10.3342 1.12028 11.8145 0 13.4606 0Z" fill="#341492"/>
<path d="M21.4697 0L19.2101 6.31445L18.5293 0H21.4697Z" fill="black" fill-opacity="0.3"/>
<path d="M26.5389 0H18.5293L21.7308 8.9468C27.5022 9.83109 31.9482 15.3645 31.9482 22.0588C31.9482 25.0383 31.0674 27.788 29.581 30H39.9995L30.2766 2.82875C29.6653 1.12028 28.185 0 26.5389 0Z" fill="#4C28B5"/>
<path d="M12.0316 29.1352C10.6629 27.186 9.84668 24.7289 9.84668 22.0587C9.84668 15.7236 14.4409 10.5881 20.1081 10.5881C25.7754 10.5881 30.3697 15.7236 30.3697 22.0587C30.3697 24.7289 29.5535 27.186 28.1847 29.1352C25.9377 27.4624 23.1404 26.4704 20.1081 26.4704C17.076 26.4704 14.2786 27.4624 12.0316 29.1352Z" fill="#4C28B5"/>
</svg>
